<svg width="184" height="180" viewBox="0 0 184 180" fill="none" xmlns="http://www.w3.org/2000/svg">
<g filter="url(#filter0_dd_102_15721)">
<g clip-path="url(#clip0_102_15721)">
<rect x="12" width="160" height="156" rx="12" fill="white"/>
<rect width="160" height="80" transform="translate(12)" fill="#D6BBFB"/>
<path d="M66.6717 38.1662H64.6774C64.6007 37.7401 64.4579 37.3651 64.2491 37.0412C64.0403 36.7173 63.7846 36.4425 63.4821 36.2166C63.1795 35.9908 62.8407 35.8203 62.4657 35.7053C62.095 35.5902 61.7008 35.5327 61.2832 35.5327C60.5289 35.5327 59.8535 35.7223 59.2569 36.1016C58.6646 36.4808 58.1958 37.0369 57.8507 37.7699C57.5098 38.5028 57.3393 39.3977 57.3393 40.4545C57.3393 41.5199 57.5098 42.419 57.8507 43.152C58.1958 43.8849 58.6667 44.4389 59.2633 44.8139C59.8599 45.1889 60.5311 45.3764 61.2768 45.3764C61.6902 45.3764 62.0822 45.321 62.4529 45.2102C62.8279 45.0952 63.1667 44.9268 63.4693 44.7053C63.7718 44.4837 64.0275 44.2131 64.2363 43.8935C64.4494 43.5696 64.5964 43.1989 64.6774 42.7812L66.6717 42.7876C66.5652 43.4311 66.3585 44.0234 66.0517 44.5646C65.7491 45.1016 65.3592 45.5661 64.8819 45.9581C64.4089 46.3459 63.8677 46.6463 63.2583 46.8594C62.649 47.0724 61.9842 47.179 61.264 47.179C60.1305 47.179 59.1206 46.9105 58.2342 46.3736C57.3478 45.8324 56.649 45.0589 56.1376 44.0533C55.6305 43.0476 55.377 41.848 55.377 40.4545C55.377 39.0568 55.6326 37.8572 56.144 36.8558C56.6554 35.8501 57.3542 35.0788 58.2406 34.5419C59.127 34.0007 60.1348 33.7301 61.264 33.7301C61.9586 33.7301 62.6064 33.8303 63.2072 34.0305C63.8123 34.2266 64.3556 34.5163 64.8372 34.8999C65.3187 35.2791 65.7171 35.7436 66.0325 36.2933C66.3478 36.8388 66.5609 37.4631 66.6717 38.1662ZM80.4066 40.4545C80.4066 41.8523 80.1509 43.054 79.6396 44.0597C79.1282 45.0611 78.4272 45.8324 77.5366 46.3736C76.6502 46.9105 75.6424 47.179 74.5131 47.179C73.3796 47.179 72.3675 46.9105 71.4769 46.3736C70.5906 45.8324 69.8917 45.0589 69.3803 44.0533C68.869 43.0476 68.6133 41.848 68.6133 40.4545C68.6133 39.0568 68.869 37.8572 69.3803 36.8558C69.8917 35.8501 70.5906 35.0788 71.4769 34.5419C72.3675 34.0007 73.3796 33.7301 74.5131 33.7301C75.6424 33.7301 76.6502 34.0007 77.5366 34.5419C78.4272 35.0788 79.1282 35.8501 79.6396 36.8558C80.1509 37.8572 80.4066 39.0568 80.4066 40.4545ZM78.4506 40.4545C78.4506 39.3892 78.2781 38.4922 77.9329 37.7635C77.592 37.0305 77.1232 36.4766 76.5266 36.1016C75.9343 35.7223 75.2631 35.5327 74.5131 35.5327C73.7589 35.5327 73.0856 35.7223 72.4933 36.1016C71.9009 36.4766 71.4322 37.0305 71.087 37.7635C70.7461 38.4922 70.5756 39.3892 70.5756 40.4545C70.5756 41.5199 70.7461 42.419 71.087 43.152C71.4322 43.8807 71.9009 44.4347 72.4933 44.8139C73.0856 45.1889 73.7589 45.3764 74.5131 45.3764C75.2631 45.3764 75.9343 45.1889 76.5266 44.8139C77.1232 44.4347 77.592 43.8807 77.9329 43.152C78.2781 42.419 78.4506 41.5199 78.4506 40.4545ZM82.8691 47V33.9091H84.8443V45.2997H90.7761V47H82.8691ZM103.891 40.4545C103.891 41.8523 103.635 43.054 103.124 44.0597C102.613 45.0611 101.912 45.8324 101.021 46.3736C100.135 46.9105 99.1268 47.179 97.9975 47.179C96.864 47.179 95.8519 46.9105 94.9613 46.3736C94.0749 45.8324 93.3761 45.0589 92.8647 44.0533C92.3533 43.0476 92.0977 41.848 92.0977 40.4545C92.0977 39.0568 92.3533 37.8572 92.8647 36.8558C93.3761 35.8501 94.0749 35.0788 94.9613 34.5419C95.8519 34.0007 96.864 33.7301 97.9975 33.7301C99.1268 33.7301 100.135 34.0007 101.021 34.5419C101.912 35.0788 102.613 35.8501 103.124 36.8558C103.635 37.8572 103.891 39.0568 103.891 40.4545ZM101.935 40.4545C101.935 39.3892 101.762 38.4922 101.417 37.7635C101.076 37.0305 100.608 36.4766 100.011 36.1016C99.4187 35.7223 98.7475 35.5327 97.9975 35.5327C97.2432 35.5327 96.57 35.7223 95.9776 36.1016C95.3853 36.4766 94.9165 37.0305 94.5714 37.7635C94.2305 38.4922 94.06 39.3892 94.06 40.4545C94.06 41.5199 94.2305 42.419 94.5714 43.152C94.9165 43.8807 95.3853 44.4347 95.9776 44.8139C96.57 45.1889 97.2432 45.3764 97.9975 45.3764C98.7475 45.3764 99.4187 45.1889 100.011 44.8139C100.608 44.4347 101.076 43.8807 101.417 43.152C101.762 42.419 101.935 41.5199 101.935 40.4545ZM106.354 47V33.9091H111.02C112.034 33.9091 112.876 34.0838 113.545 34.4332C114.218 34.7827 114.721 35.2663 115.053 35.8842C115.385 36.4979 115.552 37.2074 115.552 38.0128C115.552 38.8139 115.383 39.5192 115.047 40.1286C114.714 40.7337 114.211 41.2045 113.538 41.5412C112.869 41.8778 112.028 42.0462 111.013 42.0462H107.479V40.3459H110.834C111.474 40.3459 111.993 40.2543 112.394 40.071C112.799 39.8878 113.095 39.6214 113.282 39.272C113.47 38.9226 113.564 38.5028 113.564 38.0128C113.564 37.5185 113.468 37.0902 113.276 36.728C113.089 36.3658 112.792 36.0888 112.388 35.897C111.987 35.701 111.461 35.603 110.809 35.603H108.329V47H106.354ZM112.816 41.0938L116.05 47H113.8L110.63 41.0938H112.816ZM125.095 37.348C125.027 36.7429 124.746 36.2741 124.251 35.9418C123.757 35.6051 123.135 35.4368 122.385 35.4368C121.848 35.4368 121.383 35.522 120.991 35.6925C120.599 35.8587 120.295 36.0888 120.077 36.3828C119.864 36.6726 119.758 37.0028 119.758 37.3736C119.758 37.6847 119.83 37.9531 119.975 38.179C120.124 38.4048 120.318 38.5945 120.557 38.7479C120.8 38.897 121.059 39.0227 121.336 39.125C121.613 39.223 121.88 39.304 122.135 39.3679L123.414 39.7003C123.831 39.8026 124.26 39.9411 124.699 40.1158C125.138 40.2905 125.545 40.5206 125.92 40.8061C126.295 41.0916 126.597 41.4453 126.827 41.8672C127.062 42.2891 127.179 42.794 127.179 43.3821C127.179 44.1236 126.987 44.782 126.604 45.3572C126.224 45.9325 125.672 46.3864 124.948 46.7188C124.228 47.0511 123.356 47.2173 122.334 47.2173C121.354 47.2173 120.505 47.0618 119.79 46.7507C119.074 46.4396 118.513 45.9986 118.108 45.4276C117.704 44.8523 117.48 44.1705 117.437 43.3821H119.419C119.457 43.8551 119.611 44.2493 119.879 44.5646C120.152 44.8757 120.499 45.108 120.921 45.2614C121.347 45.4105 121.814 45.4851 122.321 45.4851C122.879 45.4851 123.376 45.3977 123.81 45.223C124.249 45.044 124.594 44.7969 124.846 44.4815C125.097 44.1619 125.223 43.7891 125.223 43.3629C125.223 42.9751 125.112 42.6577 124.89 42.4105C124.673 42.1634 124.377 41.9588 124.002 41.7969C123.631 41.6349 123.211 41.4922 122.743 41.3686L121.196 40.9467C120.148 40.6612 119.317 40.2415 118.703 39.6875C118.094 39.1335 117.789 38.4006 117.789 37.4886C117.789 36.7344 117.993 36.076 118.403 35.5135C118.812 34.951 119.366 34.5142 120.064 34.2031C120.763 33.8878 121.552 33.7301 122.43 33.7301C123.316 33.7301 124.098 33.8857 124.775 34.1967C125.457 34.5078 125.994 34.9361 126.386 35.4815C126.778 36.0227 126.983 36.6449 127 37.348H125.095Z" fill="white"/>
<path d="M29.8168 113.179C28.9389 113.179 28.1548 113.028 27.4645 112.725C26.7784 112.423 26.2351 112.003 25.8345 111.466C25.4382 110.925 25.2251 110.298 25.1953 109.587H27.2024C27.228 109.974 27.358 110.311 27.5923 110.597C27.831 110.878 28.142 111.095 28.5256 111.249C28.9091 111.402 29.3352 111.479 29.804 111.479C30.3196 111.479 30.7756 111.389 31.1719 111.21C31.5724 111.031 31.8857 110.782 32.1115 110.462C32.3374 110.138 32.4503 109.766 32.4503 109.344C32.4503 108.905 32.3374 108.519 32.1115 108.187C31.8899 107.85 31.5639 107.586 31.1335 107.394C30.7074 107.202 30.1918 107.107 29.5866 107.107H28.4808V105.496H29.5866C30.0724 105.496 30.4986 105.408 30.8651 105.234C31.2358 105.059 31.5256 104.816 31.7344 104.505C31.9432 104.19 32.0476 103.821 32.0476 103.399C32.0476 102.994 31.956 102.643 31.7727 102.344C31.5938 102.042 31.3381 101.805 31.0057 101.635C30.6776 101.464 30.2898 101.379 29.8423 101.379C29.4162 101.379 29.0178 101.458 28.647 101.616C28.2805 101.769 27.9822 101.991 27.7521 102.281C27.522 102.566 27.3984 102.909 27.3814 103.31H25.4702C25.4915 102.602 25.7003 101.98 26.0966 101.443C26.4972 100.906 27.0256 100.487 27.6818 100.184C28.3381 99.8814 29.0668 99.7301 29.8679 99.7301C30.7074 99.7301 31.4318 99.8942 32.0412 100.222C32.6548 100.546 33.1278 100.979 33.4602 101.52C33.7969 102.061 33.9631 102.653 33.9588 103.297C33.9631 104.03 33.7585 104.652 33.3452 105.163C32.9361 105.675 32.3906 106.018 31.7088 106.192V106.295C32.5781 106.427 33.2514 106.772 33.7287 107.33C34.2102 107.888 34.4489 108.581 34.4446 109.408C34.4489 110.128 34.2486 110.773 33.8438 111.344C33.4432 111.915 32.8956 112.365 32.201 112.693C31.5064 113.017 30.7116 113.179 29.8168 113.179ZM41.4183 113.217C40.4084 113.213 39.5455 112.947 38.8295 112.418C38.1136 111.89 37.5661 111.121 37.1868 110.111C36.8075 109.101 36.6179 107.884 36.6179 106.461C36.6179 105.042 36.8075 103.83 37.1868 102.824C37.5703 101.818 38.12 101.051 38.8359 100.523C39.5561 99.9943 40.4169 99.7301 41.4183 99.7301C42.4197 99.7301 43.2784 99.9964 43.9943 100.529C44.7102 101.058 45.2578 101.825 45.6371 102.83C46.0206 103.832 46.2124 105.042 46.2124 106.461C46.2124 107.888 46.0227 109.107 45.6435 110.117C45.2642 111.123 44.7166 111.892 44.0007 112.425C43.2848 112.953 42.424 113.217 41.4183 113.217ZM41.4183 111.511C42.3047 111.511 42.9972 111.078 43.4957 110.213C43.9986 109.348 44.25 108.097 44.25 106.461C44.25 105.374 44.1349 104.456 43.9048 103.706C43.679 102.952 43.353 102.381 42.9268 101.993C42.505 101.601 42.0021 101.405 41.4183 101.405C40.5362 101.405 39.8438 101.839 39.3409 102.709C38.8381 103.578 38.5845 104.829 38.5803 106.461C38.5803 107.552 38.6932 108.474 38.919 109.229C39.1491 109.979 39.4751 110.548 39.897 110.935C40.3189 111.319 40.826 111.511 41.4183 111.511ZM53.0375 113.217C52.0275 113.213 51.1646 112.947 50.4487 112.418C49.7328 111.89 49.1852 111.121 48.8059 110.111C48.4267 109.101 48.237 107.884 48.237 106.461C48.237 105.042 48.4267 103.83 48.8059 102.824C49.1895 101.818 49.7392 101.051 50.4551 100.523C51.1752 99.9943 52.036 99.7301 53.0375 99.7301C54.0389 99.7301 54.8975 99.9964 55.6135 100.529C56.3294 101.058 56.877 101.825 57.2562 102.83C57.6397 103.832 57.8315 105.042 57.8315 106.461C57.8315 107.888 57.6419 109.107 57.2626 110.117C56.8833 111.123 56.3358 111.892 55.6199 112.425C54.9039 112.953 54.0431 113.217 53.0375 113.217ZM53.0375 111.511C53.9238 111.511 54.6163 111.078 55.1149 110.213C55.6177 109.348 55.8691 108.097 55.8691 106.461C55.8691 105.374 55.7541 104.456 55.524 103.706C55.2981 102.952 54.9721 102.381 54.546 101.993C54.1241 101.601 53.6213 101.405 53.0375 101.405C52.1554 101.405 51.4629 101.839 50.96 102.709C50.4572 103.578 50.2037 104.829 50.1994 106.461C50.1994 107.552 50.3123 108.474 50.5382 109.229C50.7683 109.979 51.0943 110.548 51.5162 110.935C51.938 111.319 52.4451 111.511 53.0375 111.511Z" fill="#101828"/>
<path d="M29.5682 138L31.4773 126.364H32.6136L30.7045 138H29.5682ZM24.2727 134.773L24.4545 133.636H33.1364L32.9545 134.773H24.2727ZM25.4773 138L27.3864 126.364H28.5227L26.6136 138H25.4773ZM24.9545 130.727L25.1364 129.591H33.8182L33.6364 130.727H24.9545ZM39.0938 138H35.5028V126.364H39.2528C40.3816 126.364 41.3475 126.597 42.1506 127.062C42.9536 127.525 43.5691 128.189 43.9972 129.057C44.4252 129.92 44.6392 130.955 44.6392 132.159C44.6392 133.371 44.4233 134.415 43.9915 135.29C43.5597 136.161 42.9309 136.831 42.1051 137.301C41.2794 137.767 40.2756 138 39.0938 138ZM36.9119 136.75H39.0028C39.965 136.75 40.7623 136.564 41.3949 136.193C42.0275 135.822 42.4991 135.294 42.8097 134.608C43.1203 133.922 43.2756 133.106 43.2756 132.159C43.2756 131.22 43.1222 130.411 42.8153 129.733C42.5085 129.051 42.0502 128.528 41.4403 128.165C40.8305 127.797 40.071 127.614 39.1619 127.614H36.9119V136.75ZM50.6619 138.159C50.1847 138.152 49.7074 138.061 49.2301 137.886C48.7528 137.712 48.3172 137.419 47.9233 137.006C47.5294 136.589 47.2131 136.027 46.9744 135.318C46.7358 134.606 46.6165 133.712 46.6165 132.636C46.6165 131.606 46.7131 130.693 46.9062 129.898C47.0994 129.098 47.3797 128.426 47.7472 127.881C48.1146 127.331 48.5578 126.915 49.0767 126.631C49.5994 126.347 50.1884 126.205 50.8438 126.205C51.4953 126.205 52.0748 126.335 52.5824 126.597C53.0938 126.854 53.5104 127.214 53.8324 127.676C54.1544 128.138 54.3627 128.67 54.4574 129.273H53.071C52.9422 128.75 52.6922 128.316 52.321 127.972C51.9498 127.627 51.4574 127.455 50.8438 127.455C49.9422 127.455 49.232 127.847 48.7131 128.631C48.1979 129.415 47.9384 130.515 47.9347 131.932H48.0256C48.2377 131.61 48.4896 131.335 48.7812 131.108C49.0767 130.877 49.4025 130.699 49.7585 130.574C50.1146 130.449 50.4915 130.386 50.8892 130.386C51.5559 130.386 52.1657 130.553 52.7188 130.886C53.2718 131.216 53.715 131.672 54.0483 132.256C54.3816 132.835 54.5483 133.5 54.5483 134.25C54.5483 134.97 54.3873 135.629 54.0653 136.227C53.7434 136.822 53.2907 137.295 52.7074 137.648C52.1278 137.996 51.446 138.167 50.6619 138.159ZM50.6619 136.909C51.1392 136.909 51.5672 136.79 51.946 136.551C52.3286 136.312 52.6297 135.992 52.8494 135.591C53.0729 135.189 53.1847 134.742 53.1847 134.25C53.1847 133.769 53.0767 133.331 52.8608 132.938C52.6487 132.54 52.3551 132.223 51.9801 131.989C51.6089 131.754 51.1847 131.636 50.7074 131.636C50.3475 131.636 50.0123 131.708 49.7017 131.852C49.3911 131.992 49.1184 132.186 48.8835 132.432C48.6525 132.678 48.4706 132.96 48.3381 133.278C48.2055 133.593 48.1392 133.924 48.1392 134.273C48.1392 134.735 48.2472 135.167 48.4631 135.568C48.6828 135.97 48.982 136.294 49.3608 136.54C49.7434 136.786 50.1771 136.909 50.6619 136.909ZM56.9872 138V126.364H61.0554C61.866 126.364 62.5346 126.504 63.0611 126.784C63.5876 127.061 63.9796 127.434 64.2372 127.903C64.4948 128.369 64.6236 128.886 64.6236 129.455C64.6236 129.955 64.5346 130.367 64.3565 130.693C64.1823 131.019 63.9512 131.277 63.6634 131.466C63.3793 131.655 63.0705 131.795 62.7372 131.886V132C63.0933 132.023 63.4512 132.148 63.8111 132.375C64.1709 132.602 64.4721 132.928 64.7145 133.352C64.9569 133.777 65.0781 134.295 65.0781 134.909C65.0781 135.492 64.9455 136.017 64.6804 136.483C64.4152 136.949 63.9967 137.318 63.4247 137.591C62.8527 137.864 62.1084 138 61.1918 138H56.9872ZM58.3963 136.75H61.1918C62.1122 136.75 62.7656 136.572 63.152 136.216C63.5421 135.856 63.7372 135.42 63.7372 134.909C63.7372 134.515 63.6368 134.152 63.4361 133.818C63.2353 133.481 62.9493 133.212 62.5781 133.011C62.2069 132.807 61.7675 132.705 61.2599 132.705H58.3963V136.75ZM58.3963 131.477H61.0099C61.4342 131.477 61.8168 131.394 62.1577 131.227C62.5024 131.061 62.7751 130.826 62.9759 130.523C63.1804 130.22 63.2827 129.864 63.2827 129.455C63.2827 128.943 63.1046 128.509 62.7486 128.153C62.3925 127.794 61.8281 127.614 61.0554 127.614H58.3963V131.477ZM67.3935 138V126.364H71.4616C72.2723 126.364 72.9408 126.504 73.4673 126.784C73.9938 127.061 74.3859 127.434 74.6435 127.903C74.901 128.369 75.0298 128.886 75.0298 129.455C75.0298 129.955 74.9408 130.367 74.7628 130.693C74.5885 131.019 74.3575 131.277 74.0696 131.466C73.7855 131.655 73.4768 131.795 73.1435 131.886V132C73.4995 132.023 73.8575 132.148 74.2173 132.375C74.5772 132.602 74.8783 132.928 75.1207 133.352C75.3632 133.777 75.4844 134.295 75.4844 134.909C75.4844 135.492 75.3518 136.017 75.0866 136.483C74.8215 136.949 74.4029 137.318 73.831 137.591C73.259 137.864 72.5147 138 71.598 138H67.3935ZM68.8026 136.75H71.598C72.5185 136.75 73.1719 136.572 73.5582 136.216C73.9484 135.856 74.1435 135.42 74.1435 134.909C74.1435 134.515 74.0431 134.152 73.8423 133.818C73.6416 133.481 73.3556 133.212 72.9844 133.011C72.6132 132.807 72.1738 132.705 71.6662 132.705H68.8026V136.75ZM68.8026 131.477H71.4162C71.8404 131.477 72.223 131.394 72.5639 131.227C72.9086 131.061 73.1813 130.826 73.3821 130.523C73.5866 130.22 73.6889 129.864 73.6889 129.455C73.6889 128.943 73.5109 128.509 73.1548 128.153C72.7988 127.794 72.2344 127.614 71.4616 127.614H68.8026V131.477ZM77.7997 138V126.364H84.777V127.614H79.2088V131.545H84.2543V132.795H79.2088V138H77.7997ZM87.1903 138V126.364H91.2585C92.0691 126.364 92.7377 126.504 93.2642 126.784C93.7907 127.061 94.1828 127.434 94.4403 127.903C94.6979 128.369 94.8267 128.886 94.8267 129.455C94.8267 129.955 94.7377 130.367 94.5597 130.693C94.3854 131.019 94.1544 131.277 93.8665 131.466C93.5824 131.655 93.2737 131.795 92.9403 131.886V132C93.2964 132.023 93.6544 132.148 94.0142 132.375C94.3741 132.602 94.6752 132.928 94.9176 133.352C95.16 133.777 95.2812 134.295 95.2812 134.909C95.2812 135.492 95.1487 136.017 94.8835 136.483C94.6184 136.949 94.1998 137.318 93.6278 137.591C93.0559 137.864 92.3116 138 91.3949 138H87.1903ZM88.5994 136.75H91.3949C92.3153 136.75 92.9688 136.572 93.3551 136.216C93.7453 135.856 93.9403 135.42 93.9403 134.909C93.9403 134.515 93.84 134.152 93.6392 133.818C93.4384 133.481 93.1525 133.212 92.7812 133.011C92.41 132.807 91.9706 132.705 91.4631 132.705H88.5994V136.75ZM88.5994 131.477H91.2131C91.6373 131.477 92.0199 131.394 92.3608 131.227C92.7055 131.061 92.9782 130.826 93.179 130.523C93.3835 130.22 93.4858 129.864 93.4858 129.455C93.4858 128.943 93.3078 128.509 92.9517 128.153C92.5956 127.794 92.0313 127.614 91.2585 127.614H88.5994V131.477Z" fill="#475467"/>
</g>
<rect x="12.5" y="0.5" width="159" height="155" rx="11.5" stroke="black" stroke-opacity="0.1"/>
</g>
<defs>
<filter id="filter0_dd_102_15721" x="0" y="0" width="184" height="180" filterUnits="userSpaceOnUse" color-interpolation-filters="sRGB">
<feFlood flood-opacity="0" result="BackgroundImageFix"/>
<feColorMatrix in="SourceAlpha" type="matrix" values="0 0 0 0 0 0 0 0 0 0 0 0 0 0 0 0 0 0 127 0" result="hardAlpha"/>
<feMorphology radius="2" operator="erode" in="SourceAlpha" result="effect1_dropShadow_102_15721"/>
<feOffset dy="4"/>
<feGaussianBlur stdDeviation="3"/>
<feColorMatrix type="matrix" values="0 0 0 0 0.0627451 0 0 0 0 0.0941176 0 0 0 0 0.156863 0 0 0 0.05 0"/>
<feBlend mode="normal" in2="BackgroundImageFix" result="effect1_dropShadow_102_15721"/>
<feColorMatrix in="SourceAlpha" type="matrix" values="0 0 0 0 0 0 0 0 0 0 0 0 0 0 0 0 0 0 127 0" result="hardAlpha"/>
<feMorphology radius="4" operator="erode" in="SourceAlpha" result="effect2_dropShadow_102_15721"/>
<feOffset dy="12"/>
<feGaussianBlur stdDeviation="8"/>
<feColorMatrix type="matrix" values="0 0 0 0 0.0627451 0 0 0 0 0.0941176 0 0 0 0 0.156863 0 0 0 0.1 0"/>
<feBlend mode="normal" in2="effect1_dropShadow_102_15721" result="effect2_dropShadow_102_15721"/>
<feBlend mode="normal" in="SourceGraphic" in2="effect2_dropShadow_102_15721" result="shape"/>
</filter>
<clipPath id="clip0_102_15721">
<rect x="12" width="160" height="156" rx="12" fill="white"/>
</clipPath>
</defs>
</svg>
