<svg width="184" height="180" viewBox="0 0 184 180" fill="none" xmlns="http://www.w3.org/2000/svg">
<g filter="url(#filter0_dd_102_15719)">
<g clip-path="url(#clip0_102_15719)">
<rect x="12" width="160" height="156" rx="12" fill="white"/>
<rect width="160" height="80" transform="translate(12)" fill="#F4EBFF"/>
<path d="M65.1951 38.1662H63.2008C63.1241 37.7401 62.9814 37.3651 62.7725 37.0412C62.5637 36.7173 62.3081 36.4425 62.0055 36.2166C61.7029 35.9908 61.3642 35.8203 60.9892 35.7053C60.6184 35.5902 60.2243 35.5327 59.8066 35.5327C59.0524 35.5327 58.377 35.7223 57.7804 36.1016C57.188 36.4808 56.7193 37.0369 56.3741 37.7699C56.0332 38.5028 55.8627 39.3977 55.8627 40.4545C55.8627 41.5199 56.0332 42.419 56.3741 43.152C56.7193 43.8849 57.1902 44.4389 57.7868 44.8139C58.3833 45.1889 59.0545 45.3764 59.8002 45.3764C60.2136 45.3764 60.6056 45.321 60.9764 45.2102C61.3514 45.0952 61.6902 44.9268 61.9927 44.7053C62.2953 44.4837 62.551 44.2131 62.7598 43.8935C62.9728 43.5696 63.1198 43.1989 63.2008 42.7812L65.1951 42.7876C65.0886 43.4311 64.8819 44.0234 64.5751 44.5646C64.2725 45.1016 63.8826 45.5661 63.4054 45.9581C62.9323 46.3459 62.3912 46.6463 61.7818 46.8594C61.1724 47.0724 60.5076 47.179 59.7875 47.179C58.6539 47.179 57.644 46.9105 56.7576 46.3736C55.8713 45.8324 55.1724 45.0589 54.661 44.0533C54.1539 43.0476 53.9004 41.848 53.9004 40.4545C53.9004 39.0568 54.1561 37.8572 54.6674 36.8558C55.1788 35.8501 55.8777 35.0788 56.764 34.5419C57.6504 34.0007 58.6582 33.7301 59.7875 33.7301C60.4821 33.7301 61.1298 33.8303 61.7306 34.0305C62.3358 34.2266 62.8791 34.5163 63.3606 34.8999C63.8421 35.2791 64.2406 35.7436 64.5559 36.2933C64.8713 36.8388 65.0843 37.4631 65.1951 38.1662ZM67.5586 47V33.9091H69.5337V39.598H76.06V33.9091H78.0415V47H76.06V41.2919H69.5337V47H67.5586ZM92.2894 40.4545C92.2894 41.8523 92.0337 43.054 91.5224 44.0597C91.011 45.0611 90.31 45.8324 89.4194 46.3736C88.533 46.9105 87.5252 47.179 86.3959 47.179C85.2624 47.179 84.2504 46.9105 83.3597 46.3736C82.4734 45.8324 81.7745 45.0589 81.2631 44.0533C80.7518 43.0476 80.4961 41.848 80.4961 40.4545C80.4961 39.0568 80.7518 37.8572 81.2631 36.8558C81.7745 35.8501 82.4734 35.0788 83.3597 34.5419C84.2504 34.0007 85.2624 33.7301 86.3959 33.7301C87.5252 33.7301 88.533 34.0007 89.4194 34.5419C90.31 35.0788 91.011 35.8501 91.5224 36.8558C92.0337 37.8572 92.2894 39.0568 92.2894 40.4545ZM90.3334 40.4545C90.3334 39.3892 90.1609 38.4922 89.8157 37.7635C89.4748 37.0305 89.006 36.4766 88.4094 36.1016C87.8171 35.7223 87.1459 35.5327 86.3959 35.5327C85.6417 35.5327 84.9684 35.7223 84.3761 36.1016C83.7837 36.4766 83.315 37.0305 82.9698 37.7635C82.6289 38.4922 82.4584 39.3892 82.4584 40.4545C82.4584 41.5199 82.6289 42.419 82.9698 43.152C83.315 43.8807 83.7837 44.4347 84.3761 44.8139C84.9684 45.1889 85.6417 45.3764 86.3959 45.3764C87.1459 45.3764 87.8171 45.1889 88.4094 44.8139C89.006 44.4347 89.4748 43.8807 89.8157 43.152C90.1609 42.419 90.3334 41.5199 90.3334 40.4545ZM106.123 40.4545C106.123 41.8523 105.868 43.054 105.356 44.0597C104.845 45.0611 104.144 45.8324 103.253 46.3736C102.367 46.9105 101.359 47.179 100.23 47.179C99.0964 47.179 98.0843 46.9105 97.1937 46.3736C96.3073 45.8324 95.6085 45.0589 95.0971 44.0533C94.5858 43.0476 94.3301 41.848 94.3301 40.4545C94.3301 39.0568 94.5858 37.8572 95.0971 36.8558C95.6085 35.8501 96.3073 35.0788 97.1937 34.5419C98.0843 34.0007 99.0964 33.7301 100.23 33.7301C101.359 33.7301 102.367 34.0007 103.253 34.5419C104.144 35.0788 104.845 35.8501 105.356 36.8558C105.868 37.8572 106.123 39.0568 106.123 40.4545ZM104.167 40.4545C104.167 39.3892 103.995 38.4922 103.65 37.7635C103.309 37.0305 102.84 36.4766 102.243 36.1016C101.651 35.7223 100.98 35.5327 100.23 35.5327C99.4757 35.5327 98.8024 35.7223 98.21 36.1016C97.6177 36.4766 97.149 37.0305 96.8038 37.7635C96.4629 38.4922 96.2924 39.3892 96.2924 40.4545C96.2924 41.5199 96.4629 42.419 96.8038 43.152C97.149 43.8807 97.6177 44.4347 98.21 44.8139C98.8024 45.1889 99.4757 45.3764 100.23 45.3764C100.98 45.3764 101.651 45.1889 102.243 44.8139C102.84 44.4347 103.309 43.8807 103.65 43.152C103.995 42.419 104.167 41.5199 104.167 40.4545ZM115.726 37.348C115.658 36.7429 115.376 36.2741 114.882 35.9418C114.388 35.6051 113.766 35.4368 113.016 35.4368C112.479 35.4368 112.014 35.522 111.622 35.6925C111.23 35.8587 110.925 36.0888 110.708 36.3828C110.495 36.6726 110.388 37.0028 110.388 37.3736C110.388 37.6847 110.461 37.9531 110.606 38.179C110.755 38.4048 110.949 38.5945 111.187 38.7479C111.43 38.897 111.69 39.0227 111.967 39.125C112.244 39.223 112.511 39.304 112.766 39.3679L114.045 39.7003C114.462 39.8026 114.891 39.9411 115.33 40.1158C115.768 40.2905 116.175 40.5206 116.55 40.8061C116.925 41.0916 117.228 41.4453 117.458 41.8672C117.692 42.2891 117.81 42.794 117.81 43.3821C117.81 44.1236 117.618 44.782 117.234 45.3572C116.855 45.9325 116.303 46.3864 115.579 46.7188C114.859 47.0511 113.987 47.2173 112.964 47.2173C111.984 47.2173 111.136 47.0618 110.42 46.7507C109.705 46.4396 109.144 45.9986 108.739 45.4276C108.335 44.8523 108.111 44.1705 108.068 43.3821H110.05C110.088 43.8551 110.241 44.2493 110.51 44.5646C110.783 44.8757 111.13 45.108 111.552 45.2614C111.978 45.4105 112.445 45.4851 112.952 45.4851C113.51 45.4851 114.006 45.3977 114.441 45.223C114.88 45.044 115.225 44.7969 115.477 44.4815C115.728 44.1619 115.854 43.7891 115.854 43.3629C115.854 42.9751 115.743 42.6577 115.521 42.4105C115.304 42.1634 115.008 41.9588 114.633 41.7969C114.262 41.6349 113.842 41.4922 113.374 41.3686L111.827 40.9467C110.778 40.6612 109.947 40.2415 109.334 39.6875C108.724 39.1335 108.42 38.4006 108.42 37.4886C108.42 36.7344 108.624 36.076 109.033 35.5135C109.442 34.951 109.996 34.5142 110.695 34.2031C111.394 33.8878 112.183 33.7301 113.06 33.7301C113.947 33.7301 114.729 33.8857 115.406 34.1967C116.088 34.5078 116.625 34.9361 117.017 35.4815C117.409 36.0227 117.614 36.6449 117.631 37.348H115.726ZM120.17 47V33.9091H128.377V35.6094H122.145V39.598H127.949V41.2919H122.145V45.2997H128.454V47H120.17Z" fill="#6941C6"/>
<path d="M30.2259 99.9091V113H28.2443V101.891H28.1676L25.0355 103.936V102.044L28.3018 99.9091H30.2259ZM38.3246 113.217C37.3146 113.213 36.4517 112.947 35.7358 112.418C35.0199 111.89 34.4723 111.121 34.093 110.111C33.7138 109.101 33.5241 107.884 33.5241 106.461C33.5241 105.042 33.7138 103.83 34.093 102.824C34.4766 101.818 35.0263 101.051 35.7422 100.523C36.4624 99.9943 37.3232 99.7301 38.3246 99.7301C39.326 99.7301 40.1847 99.9964 40.9006 100.529C41.6165 101.058 42.1641 101.825 42.5433 102.83C42.9268 103.832 43.1186 105.042 43.1186 106.461C43.1186 107.888 42.929 109.107 42.5497 110.117C42.1705 111.123 41.6229 111.892 40.907 112.425C40.1911 112.953 39.3303 113.217 38.3246 113.217ZM38.3246 111.511C39.2109 111.511 39.9034 111.078 40.402 110.213C40.9048 109.348 41.1562 108.097 41.1562 106.461C41.1562 105.374 41.0412 104.456 40.8111 103.706C40.5852 102.952 40.2592 102.381 39.8331 101.993C39.4112 101.601 38.9084 101.405 38.3246 101.405C37.4425 101.405 36.75 101.839 36.2472 102.709C35.7443 103.578 35.4908 104.829 35.4865 106.461C35.4865 107.552 35.5994 108.474 35.8253 109.229C36.0554 109.979 36.3814 110.548 36.8033 110.935C37.2251 111.319 37.7322 111.511 38.3246 111.511ZM49.9437 113.217C48.9338 113.213 48.0708 112.947 47.3549 112.418C46.639 111.89 46.0914 111.121 45.7122 110.111C45.3329 109.101 45.1433 107.884 45.1433 106.461C45.1433 105.042 45.3329 103.83 45.7122 102.824C46.0957 101.818 46.6454 101.051 47.3613 100.523C48.0815 99.9943 48.9423 99.7301 49.9437 99.7301C50.9451 99.7301 51.8038 99.9964 52.5197 100.529C53.2356 101.058 53.7832 101.825 54.1625 102.83C54.546 103.832 54.7377 105.042 54.7377 106.461C54.7377 107.888 54.5481 109.107 54.1689 110.117C53.7896 111.123 53.242 111.892 52.5261 112.425C51.8102 112.953 50.9494 113.217 49.9437 113.217ZM49.9437 111.511C50.8301 111.511 51.5225 111.078 52.0211 110.213C52.524 109.348 52.7754 108.097 52.7754 106.461C52.7754 105.374 52.6603 104.456 52.4302 103.706C52.2044 102.952 51.8784 102.381 51.4522 101.993C51.0304 101.601 50.5275 101.405 49.9437 101.405C49.0616 101.405 48.3691 101.839 47.8663 102.709C47.3635 103.578 47.1099 104.829 47.1056 106.461C47.1056 107.552 47.2186 108.474 47.4444 109.229C47.6745 109.979 48.0005 110.548 48.4224 110.935C48.8443 111.319 49.3514 111.511 49.9437 111.511Z" fill="#101828"/>
<path d="M29.5682 138L31.4773 126.364H32.6136L30.7045 138H29.5682ZM24.2727 134.773L24.4545 133.636H33.1364L32.9545 134.773H24.2727ZM25.4773 138L27.3864 126.364H28.5227L26.6136 138H25.4773ZM24.9545 130.727L25.1364 129.591H33.8182L33.6364 130.727H24.9545ZM35.5028 138V126.364H42.4801V127.614H36.9119V131.545H41.9574V132.795H36.9119V138H35.5028ZM44.4162 135.614V134.455L49.5298 126.364H50.3707V128.159H49.8026L45.9389 134.273V134.364H52.8253V135.614H44.4162ZM49.8935 138V135.261V134.722V126.364H51.2344V138H49.8935ZM55.1591 138V126.364H62.1818V127.614H56.5682V131.545H61.8182V132.795H56.5682V136.75H62.2727V138H55.1591ZM64.7216 138V126.364H68.7898C69.6004 126.364 70.2689 126.504 70.7955 126.784C71.322 127.061 71.714 127.434 71.9716 127.903C72.2292 128.369 72.358 128.886 72.358 129.455C72.358 129.955 72.2689 130.367 72.0909 130.693C71.9167 131.019 71.6856 131.277 71.3977 131.466C71.1136 131.655 70.8049 131.795 70.4716 131.886V132C70.8277 132.023 71.1856 132.148 71.5455 132.375C71.9053 132.602 72.2064 132.928 72.4489 133.352C72.6913 133.777 72.8125 134.295 72.8125 134.909C72.8125 135.492 72.6799 136.017 72.4148 136.483C72.1496 136.949 71.7311 137.318 71.1591 137.591C70.5871 137.864 69.8428 138 68.9261 138H64.7216ZM66.1307 136.75H68.9261C69.8466 136.75 70.5 136.572 70.8864 136.216C71.2765 135.856 71.4716 135.42 71.4716 134.909C71.4716 134.515 71.3712 134.152 71.1705 133.818C70.9697 133.481 70.6837 133.212 70.3125 133.011C69.9413 132.807 69.5019 132.705 68.9943 132.705H66.1307V136.75ZM66.1307 131.477H68.7443C69.1686 131.477 69.5511 131.394 69.892 131.227C70.2367 131.061 70.5095 130.826 70.7102 130.523C70.9148 130.22 71.017 129.864 71.017 129.455C71.017 128.943 70.839 128.509 70.483 128.153C70.1269 127.794 69.5625 127.614 68.7898 127.614H66.1307V131.477ZM75.1278 138V126.364H82.1051V127.614H76.5369V131.545H81.5824V132.795H76.5369V138H75.1278ZM84.5185 138V126.364H91.4957V127.614H85.9276V131.545H90.973V132.795H85.9276V138H84.5185Z" fill="#475467"/>
</g>
<rect x="12.5" y="0.5" width="159" height="155" rx="11.5" stroke="black" stroke-opacity="0.1"/>
</g>
<defs>
<filter id="filter0_dd_102_15719" x="0" y="0" width="184" height="180" filterUnits="userSpaceOnUse" color-interpolation-filters="sRGB">
<feFlood flood-opacity="0" result="BackgroundImageFix"/>
<feColorMatrix in="SourceAlpha" type="matrix" values="0 0 0 0 0 0 0 0 0 0 0 0 0 0 0 0 0 0 127 0" result="hardAlpha"/>
<feMorphology radius="2" operator="erode" in="SourceAlpha" result="effect1_dropShadow_102_15719"/>
<feOffset dy="4"/>
<feGaussianBlur stdDeviation="3"/>
<feColorMatrix type="matrix" values="0 0 0 0 0.0627451 0 0 0 0 0.0941176 0 0 0 0 0.156863 0 0 0 0.05 0"/>
<feBlend mode="normal" in2="BackgroundImageFix" result="effect1_dropShadow_102_15719"/>
<feColorMatrix in="SourceAlpha" type="matrix" values="0 0 0 0 0 0 0 0 0 0 0 0 0 0 0 0 0 0 127 0" result="hardAlpha"/>
<feMorphology radius="4" operator="erode" in="SourceAlpha" result="effect2_dropShadow_102_15719"/>
<feOffset dy="12"/>
<feGaussianBlur stdDeviation="8"/>
<feColorMatrix type="matrix" values="0 0 0 0 0.0627451 0 0 0 0 0.0941176 0 0 0 0 0.156863 0 0 0 0.1 0"/>
<feBlend mode="normal" in2="effect1_dropShadow_102_15719" result="effect2_dropShadow_102_15719"/>
<feBlend mode="normal" in="SourceGraphic" in2="effect2_dropShadow_102_15719" result="shape"/>
</filter>
<clipPath id="clip0_102_15719">
<rect x="12" width="160" height="156" rx="12" fill="white"/>
</clipPath>
</defs>
</svg>
