<svg width="184" height="180" viewBox="0 0 184 180" fill="none" xmlns="http://www.w3.org/2000/svg">
<g filter="url(#filter0_dd_102_15720)">
<g clip-path="url(#clip0_102_15720)">
<rect x="12" width="160" height="156" rx="12" fill="white"/>
<rect width="160" height="80" transform="translate(12)" fill="#E9D7FE"/>
<path d="M66.4783 33.9091H68.7219L72.1417 39.8601H72.2823L75.7021 33.9091H77.9457L73.1964 41.8608V47H71.2276V41.8608L66.4783 33.9091ZM90.514 40.4545C90.514 41.8523 90.2583 43.054 89.747 44.0597C89.2356 45.0611 88.5346 45.8324 87.644 46.3736C86.7576 46.9105 85.7498 47.179 84.6206 47.179C83.487 47.179 82.475 46.9105 81.5843 46.3736C80.698 45.8324 79.9991 45.0589 79.4877 44.0533C78.9764 43.0476 78.7207 41.848 78.7207 40.4545C78.7207 39.0568 78.9764 37.8572 79.4877 36.8558C79.9991 35.8501 80.698 35.0788 81.5843 34.5419C82.475 34.0007 83.487 33.7301 84.6206 33.7301C85.7498 33.7301 86.7576 34.0007 87.644 34.5419C88.5346 35.0788 89.2356 35.8501 89.747 36.8558C90.2583 37.8572 90.514 39.0568 90.514 40.4545ZM88.5581 40.4545C88.5581 39.3892 88.3855 38.4922 88.0403 37.7635C87.6994 37.0305 87.2306 36.4766 86.6341 36.1016C86.0417 35.7223 85.3706 35.5327 84.6206 35.5327C83.8663 35.5327 83.193 35.7223 82.6007 36.1016C82.0083 36.4766 81.5396 37.0305 81.1944 37.7635C80.8535 38.4922 80.6831 39.3892 80.6831 40.4545C80.6831 41.5199 80.8535 42.419 81.1944 43.152C81.5396 43.8807 82.0083 44.4347 82.6007 44.8139C83.193 45.1889 83.8663 45.3764 84.6206 45.3764C85.3706 45.3764 86.0417 45.1889 86.6341 44.8139C87.2306 44.4347 87.6994 43.8807 88.0403 43.152C88.3855 42.419 88.5581 41.5199 88.5581 40.4545ZM101.395 33.9091H103.376V42.5192C103.376 43.4354 103.161 44.2472 102.731 44.9545C102.3 45.6577 101.695 46.2116 100.915 46.6165C100.136 47.017 99.2216 47.2173 98.1733 47.2173C97.1293 47.2173 96.2173 47.017 95.4375 46.6165C94.6577 46.2116 94.0526 45.6577 93.6222 44.9545C93.1918 44.2472 92.9766 43.4354 92.9766 42.5192V33.9091H94.9517V42.3594C94.9517 42.9517 95.0817 43.478 95.3416 43.9382C95.6058 44.3984 95.9787 44.7607 96.4602 45.0249C96.9418 45.2848 97.5128 45.4148 98.1733 45.4148C98.8381 45.4148 99.4112 45.2848 99.8928 45.0249C100.379 44.7607 100.749 44.3984 101.005 43.9382C101.265 43.478 101.395 42.9517 101.395 42.3594V33.9091ZM106.248 47V33.9091H110.914C111.928 33.9091 112.77 34.0838 113.439 34.4332C114.112 34.7827 114.615 35.2663 114.948 35.8842C115.28 36.4979 115.446 37.2074 115.446 38.0128C115.446 38.8139 115.278 39.5192 114.941 40.1286C114.609 40.7337 114.106 41.2045 113.433 41.5412C112.764 41.8778 111.922 42.0462 110.908 42.0462H107.373V40.3459H110.729C111.368 40.3459 111.888 40.2543 112.289 40.071C112.693 39.8878 112.99 39.6214 113.177 39.272C113.365 38.9226 113.458 38.5028 113.458 38.0128C113.458 37.5185 113.362 37.0902 113.171 36.728C112.983 36.3658 112.687 36.0888 112.282 35.897C111.882 35.701 111.355 35.603 110.703 35.603H108.223V47H106.248ZM112.71 41.0938L115.945 47H113.695L110.524 41.0938H112.71Z" fill="#6941C6"/>
<path d="M25.2592 113V111.568L29.6889 106.979C30.1619 106.48 30.5518 106.043 30.8587 105.668C31.1697 105.289 31.402 104.929 31.5554 104.588C31.7088 104.247 31.7855 103.885 31.7855 103.501C31.7855 103.067 31.6832 102.692 31.4787 102.376C31.2741 102.057 30.995 101.812 30.6413 101.641C30.2876 101.467 29.8892 101.379 29.446 101.379C28.9773 101.379 28.5682 101.475 28.2188 101.667C27.8693 101.859 27.6009 102.129 27.4134 102.479C27.2259 102.828 27.1321 103.237 27.1321 103.706H25.2464C25.2464 102.909 25.4297 102.212 25.7962 101.616C26.1626 101.019 26.6655 100.557 27.3047 100.229C27.9439 99.8963 28.6705 99.7301 29.4844 99.7301C30.3068 99.7301 31.0313 99.8942 31.6577 100.222C32.2884 100.546 32.7805 100.989 33.1342 101.552C33.4879 102.11 33.6648 102.741 33.6648 103.444C33.6648 103.93 33.5732 104.405 33.3899 104.869C33.2109 105.334 32.8977 105.852 32.4503 106.423C32.0028 106.989 31.3807 107.678 30.5838 108.487L27.9822 111.21V111.306H33.8757V113H25.2592ZM40.8558 113.217C39.8459 113.213 38.983 112.947 38.267 112.418C37.5511 111.89 37.0036 111.121 36.6243 110.111C36.245 109.101 36.0554 107.884 36.0554 106.461C36.0554 105.042 36.245 103.83 36.6243 102.824C37.0078 101.818 37.5575 101.051 38.2734 100.523C38.9936 99.9943 39.8544 99.7301 40.8558 99.7301C41.8572 99.7301 42.7159 99.9964 43.4318 100.529C44.1477 101.058 44.6953 101.825 45.0746 102.83C45.4581 103.832 45.6499 105.042 45.6499 106.461C45.6499 107.888 45.4602 109.107 45.081 110.117C44.7017 111.123 44.1541 111.892 43.4382 112.425C42.7223 112.953 41.8615 113.217 40.8558 113.217ZM40.8558 111.511C41.7422 111.511 42.4347 111.078 42.9332 110.213C43.4361 109.348 43.6875 108.097 43.6875 106.461C43.6875 105.374 43.5724 104.456 43.3423 103.706C43.1165 102.952 42.7905 102.381 42.3643 101.993C41.9425 101.601 41.4396 101.405 40.8558 101.405C39.9737 101.405 39.2813 101.839 38.7784 102.709C38.2756 103.578 38.022 104.829 38.0178 106.461C38.0178 107.552 38.1307 108.474 38.3565 109.229C38.5866 109.979 38.9126 110.548 39.3345 110.935C39.7564 111.319 40.2635 111.511 40.8558 111.511ZM52.475 113.217C51.465 113.213 50.6021 112.947 49.8862 112.418C49.1703 111.89 48.6227 111.121 48.2434 110.111C47.8642 109.101 47.6745 107.884 47.6745 106.461C47.6745 105.042 47.8642 103.83 48.2434 102.824C48.627 101.818 49.1767 101.051 49.8926 100.523C50.6127 99.9943 51.4735 99.7301 52.475 99.7301C53.4764 99.7301 54.335 99.9964 55.051 100.529C55.7669 101.058 56.3145 101.825 56.6937 102.83C57.0772 103.832 57.269 105.042 57.269 106.461C57.269 107.888 57.0794 109.107 56.7001 110.117C56.3208 111.123 55.7733 111.892 55.0574 112.425C54.3414 112.953 53.4806 113.217 52.475 113.217ZM52.475 111.511C53.3613 111.511 54.0538 111.078 54.5524 110.213C55.0552 109.348 55.3066 108.097 55.3066 106.461C55.3066 105.374 55.1916 104.456 54.9615 103.706C54.7356 102.952 54.4096 102.381 53.9835 101.993C53.5616 101.601 53.0588 101.405 52.475 101.405C51.5929 101.405 50.9004 101.839 50.3975 102.709C49.8947 103.578 49.6412 104.829 49.6369 106.461C49.6369 107.552 49.7498 108.474 49.9757 109.229C50.2058 109.979 50.5318 110.548 50.9537 110.935C51.3755 111.319 51.8826 111.511 52.475 111.511Z" fill="#101828"/>
<path d="M29.5682 138L31.4773 126.364H32.6136L30.7045 138H29.5682ZM24.2727 134.773L24.4545 133.636H33.1364L32.9545 134.773H24.2727ZM25.4773 138L27.3864 126.364H28.5227L26.6136 138H25.4773ZM24.9545 130.727L25.1364 129.591H33.8182L33.6364 130.727H24.9545ZM35.5028 138V126.364H42.5256V127.614H36.9119V131.545H42.1619V132.795H36.9119V136.75H42.6165V138H35.5028ZM48.5653 126.205C49.0426 126.208 49.5199 126.299 49.9972 126.477C50.4744 126.655 50.91 126.951 51.304 127.364C51.6979 127.773 52.0142 128.331 52.2528 129.04C52.4915 129.748 52.6108 130.636 52.6108 131.705C52.6108 132.739 52.5123 133.657 52.3153 134.46C52.1222 135.259 51.8419 135.934 51.4744 136.483C51.1108 137.032 50.6676 137.449 50.1449 137.733C49.6259 138.017 49.0388 138.159 48.3835 138.159C47.732 138.159 47.1506 138.03 46.6392 137.773C46.1316 137.511 45.715 137.15 45.3892 136.688C45.0672 136.222 44.8608 135.682 44.7699 135.068H46.1562C46.2812 135.602 46.5294 136.044 46.9006 136.392C47.2756 136.737 47.7699 136.909 48.3835 136.909C49.2813 136.909 49.9896 136.517 50.5085 135.733C51.0313 134.949 51.2926 133.841 51.2926 132.409H51.2017C50.9896 132.727 50.7377 133.002 50.446 133.233C50.1544 133.464 49.8305 133.642 49.4744 133.767C49.1184 133.892 48.7396 133.955 48.3381 133.955C47.6714 133.955 47.0597 133.79 46.5028 133.46C45.9498 133.127 45.5066 132.67 45.1733 132.091C44.8438 131.508 44.679 130.841 44.679 130.091C44.679 129.379 44.8381 128.727 45.1562 128.136C45.4782 127.542 45.929 127.068 46.5085 126.716C47.0919 126.364 47.7775 126.193 48.5653 126.205ZM48.5653 127.455C48.0881 127.455 47.6581 127.574 47.2756 127.812C46.8968 128.047 46.5956 128.366 46.3722 128.767C46.1525 129.165 46.0426 129.606 46.0426 130.091C46.0426 130.576 46.1487 131.017 46.3608 131.415C46.5767 131.809 46.8703 132.123 47.2415 132.358C47.6165 132.589 48.0426 132.705 48.5199 132.705C48.8797 132.705 49.215 132.634 49.5256 132.494C49.8362 132.35 50.107 132.155 50.3381 131.909C50.5729 131.659 50.7566 131.377 50.8892 131.062C51.0218 130.744 51.0881 130.413 51.0881 130.068C51.0881 129.614 50.9782 129.187 50.7585 128.79C50.5426 128.392 50.2434 128.07 49.8608 127.824C49.482 127.578 49.0502 127.455 48.5653 127.455ZM58.6406 138H55.0497V126.364H58.7997C59.9285 126.364 60.8944 126.597 61.6974 127.062C62.5005 127.525 63.116 128.189 63.544 129.057C63.9721 129.92 64.1861 130.955 64.1861 132.159C64.1861 133.371 63.9702 134.415 63.5384 135.29C63.1065 136.161 62.4777 136.831 61.652 137.301C60.8262 137.767 59.8224 138 58.6406 138ZM56.4588 136.75H58.5497C59.5118 136.75 60.3092 136.564 60.9418 136.193C61.5743 135.822 62.0459 135.294 62.3565 134.608C62.6671 133.922 62.8224 133.106 62.8224 132.159C62.8224 131.22 62.669 130.411 62.3622 129.733C62.0554 129.051 61.5971 128.528 60.9872 128.165C60.3774 127.797 59.6179 127.614 58.7088 127.614H56.4588V136.75ZM66.7088 138L71.9134 127.705V127.614H65.9134V126.364H73.3679V127.682L68.1861 138H66.7088ZM75.6903 138V126.364H82.6676V127.614H77.0994V131.545H82.1449V132.795H77.0994V138H75.6903ZM85.081 138V126.364H92.1037V127.614H86.4901V131.545H91.7401V132.795H86.4901V136.75H92.1946V138H85.081Z" fill="#475467"/>
</g>
<rect x="12.5" y="0.5" width="159" height="155" rx="11.5" stroke="black" stroke-opacity="0.1"/>
</g>
<defs>
<filter id="filter0_dd_102_15720" x="0" y="0" width="184" height="180" filterUnits="userSpaceOnUse" color-interpolation-filters="sRGB">
<feFlood flood-opacity="0" result="BackgroundImageFix"/>
<feColorMatrix in="SourceAlpha" type="matrix" values="0 0 0 0 0 0 0 0 0 0 0 0 0 0 0 0 0 0 127 0" result="hardAlpha"/>
<feMorphology radius="2" operator="erode" in="SourceAlpha" result="effect1_dropShadow_102_15720"/>
<feOffset dy="4"/>
<feGaussianBlur stdDeviation="3"/>
<feColorMatrix type="matrix" values="0 0 0 0 0.0627451 0 0 0 0 0.0941176 0 0 0 0 0.156863 0 0 0 0.05 0"/>
<feBlend mode="normal" in2="BackgroundImageFix" result="effect1_dropShadow_102_15720"/>
<feColorMatrix in="SourceAlpha" type="matrix" values="0 0 0 0 0 0 0 0 0 0 0 0 0 0 0 0 0 0 127 0" result="hardAlpha"/>
<feMorphology radius="4" operator="erode" in="SourceAlpha" result="effect2_dropShadow_102_15720"/>
<feOffset dy="12"/>
<feGaussianBlur stdDeviation="8"/>
<feColorMatrix type="matrix" values="0 0 0 0 0.0627451 0 0 0 0 0.0941176 0 0 0 0 0.156863 0 0 0 0.1 0"/>
<feBlend mode="normal" in2="effect1_dropShadow_102_15720" result="effect2_dropShadow_102_15720"/>
<feBlend mode="normal" in="SourceGraphic" in2="effect2_dropShadow_102_15720" result="shape"/>
</filter>
<clipPath id="clip0_102_15720">
<rect x="12" width="160" height="156" rx="12" fill="white"/>
</clipPath>
</defs>
</svg>
