<svg width="236" height="44" viewBox="0 0 236 44" fill="none" xmlns="http://www.w3.org/2000/svg">
<g filter="url(#filter0_dd_102_30328)">
<g clip-path="url(#clip0_102_30328)">
<rect x="4" y="3" width="36" height="36" rx="9" fill="white"/>
<rect x="4" y="3" width="36" height="36" rx="9" fill="url(#paint0_linear_102_30328)"/>
<path fill-rule="evenodd" clip-rule="evenodd" d="M22 5.29369C13.3256 5.29369 6.29369 12.3256 6.29369 21C6.29369 29.6744 13.3256 36.7063 22 36.7063C30.6744 36.7063 37.7063 29.6744 37.7063 21C37.7063 12.3256 30.6744 5.29369 22 5.29369ZM6.20631 21C6.20631 12.2774 13.2774 5.20631 22 5.20631C30.7226 5.20631 37.7937 12.2774 37.7937 21C37.7937 29.7226 30.7226 36.7937 22 36.7937C13.2774 36.7937 6.20631 29.7226 6.20631 21Z" fill="#D0D5DD"/>
<path fill-rule="evenodd" clip-rule="evenodd" d="M22 16.5876C19.563 16.5876 17.5874 18.5632 17.5874 21.0003C17.5874 23.4373 19.563 25.4129 22 25.4129C24.437 25.4129 26.4126 23.4373 26.4126 21.0003C26.4126 18.5632 24.437 16.5876 22 16.5876ZM17.5 21.0003C17.5 18.515 19.5147 16.5003 22 16.5003C24.4853 16.5003 26.5 18.515 26.5 21.0003C26.5 23.4855 24.4853 25.5003 22 25.5003C19.5147 25.5003 17.5 23.4855 17.5 21.0003Z" fill="#D0D5DD"/>
<path fill-rule="evenodd" clip-rule="evenodd" d="M22 17.9851C20.3351 17.9851 18.9854 19.3348 18.9854 20.9997C18.9854 22.6646 20.3351 24.0142 22 24.0142C23.6649 24.0142 25.0146 22.6646 25.0146 20.9997C25.0146 19.3348 23.6649 17.9851 22 17.9851ZM18.8981 20.9997C18.8981 19.2865 20.2869 17.8977 22 17.8977C23.7132 17.8977 25.1019 19.2865 25.1019 20.9997C25.1019 22.7128 23.7132 24.1016 22 24.1016C20.2869 24.1016 18.8981 22.7128 18.8981 20.9997Z" fill="#D0D5DD"/>
<path d="M21.9563 3H22.0437V39H21.9563V3Z" fill="#D0D5DD"/>
<path d="M40 20.9561L40 21.0434L4 21.0434L4 20.9561L40 20.9561Z" fill="#D0D5DD"/>
<path d="M33.9272 3H34.0146V39H33.9272V3Z" fill="#D0D5DD"/>
<path d="M15.9709 3H16.0582V39H15.9709V3Z" fill="#D0D5DD"/>
<path d="M27.9417 3H28.0291V39H27.9417V3Z" fill="#D0D5DD"/>
<path d="M9.98542 3H10.0728V39H9.98542V3Z" fill="#D0D5DD"/>
<path d="M40 32.9268L40 33.0141L4 33.0141L4 32.9268L40 32.9268Z" fill="#D0D5DD"/>
<path d="M40 14.9707L40 15.0581L4 15.0581L4 14.9707L40 14.9707Z" fill="#D0D5DD"/>
<path d="M40 26.9414L40 27.0288L4 27.0288L4 26.9414L40 26.9414Z" fill="#D0D5DD"/>
<path d="M40 8.98535L40 9.07273L4 9.07273L4 8.98535L40 8.98535Z" fill="#D0D5DD"/>
<g filter="url(#filter1_dd_102_30328)">
<circle cx="22" cy="21" r="9" fill="url(#paint1_linear_102_30328)"/>
</g>
<g filter="url(#filter2_b_102_30328)">
<path d="M4 21H40V24.6C40 29.6405 40 32.1607 39.0191 34.0859C38.1562 35.7794 36.7794 37.1562 35.0859 38.0191C33.1607 39 30.6405 39 25.6 39H18.4C13.3595 39 10.8393 39 8.91409 38.0191C7.22063 37.1562 5.8438 35.7794 4.98094 34.0859C4 32.1607 4 29.6405 4 24.6V21Z" fill="white" fill-opacity="0.2"/>
</g>
</g>
<rect x="4.1125" y="3.1125" width="35.775" height="35.775" rx="8.8875" stroke="#D0D5DD" stroke-width="0.225"/>
</g>
<path d="M68.9034 30L67.5909 28.7045L72.9943 23.3011H59V21.4261H72.9943L67.5909 16.0398L68.9034 14.7273L76.5398 22.3636L68.9034 30Z" fill="white"/>
<path d="M111.662 18.4347H108.474C108.384 17.9119 108.216 17.4489 107.972 17.0455C107.727 16.6364 107.423 16.2898 107.06 16.0057C106.696 15.7216 106.281 15.5085 105.815 15.3665C105.355 15.2188 104.858 15.1449 104.324 15.1449C103.375 15.1449 102.534 15.3835 101.801 15.8608C101.068 16.3324 100.494 17.0256 100.08 17.9403C99.6648 18.8494 99.4574 19.9602 99.4574 21.2727C99.4574 22.608 99.6648 23.733 100.08 24.6477C100.5 25.5568 101.074 26.2443 101.801 26.7102C102.534 27.1705 103.372 27.4006 104.315 27.4006C104.838 27.4006 105.327 27.3324 105.781 27.196C106.241 27.054 106.653 26.8466 107.017 26.5739C107.386 26.3011 107.696 25.9659 107.946 25.5682C108.202 25.1705 108.378 24.7159 108.474 24.2045L111.662 24.2216C111.543 25.0511 111.284 25.8295 110.886 26.5568C110.494 27.2841 109.98 27.9261 109.344 28.483C108.707 29.0341 107.963 29.4659 107.111 29.7784C106.259 30.0852 105.313 30.2386 104.273 30.2386C102.739 30.2386 101.369 29.8835 100.165 29.1733C98.9602 28.4631 98.0114 27.4375 97.3182 26.0966C96.625 24.7557 96.2784 23.1477 96.2784 21.2727C96.2784 19.392 96.6278 17.7841 97.3267 16.4489C98.0256 15.108 98.9773 14.0824 100.182 13.3722C101.386 12.6619 102.75 12.3068 104.273 12.3068C105.244 12.3068 106.148 12.4432 106.983 12.7159C107.818 12.9886 108.563 13.3892 109.216 13.9176C109.869 14.4403 110.406 15.0824 110.827 15.8438C111.253 16.5994 111.531 17.4631 111.662 18.4347ZM130.154 21.2727C130.154 23.1534 129.802 24.7642 129.097 26.1051C128.398 27.4403 127.444 28.4631 126.234 29.1733C125.029 29.8835 123.663 30.2386 122.134 30.2386C120.606 30.2386 119.237 29.8835 118.026 29.1733C116.822 28.4574 115.867 27.4318 115.163 26.0966C114.464 24.7557 114.114 23.1477 114.114 21.2727C114.114 19.392 114.464 17.7841 115.163 16.4489C115.867 15.108 116.822 14.0824 118.026 13.3722C119.237 12.6619 120.606 12.3068 122.134 12.3068C123.663 12.3068 125.029 12.6619 126.234 13.3722C127.444 14.0824 128.398 15.108 129.097 16.4489C129.802 17.7841 130.154 19.392 130.154 21.2727ZM126.975 21.2727C126.975 19.9489 126.768 18.8324 126.353 17.9233C125.944 17.0085 125.376 16.3182 124.648 15.8523C123.921 15.3807 123.083 15.1449 122.134 15.1449C121.185 15.1449 120.347 15.3807 119.62 15.8523C118.893 16.3182 118.322 17.0085 117.907 17.9233C117.498 18.8324 117.293 19.9489 117.293 21.2727C117.293 22.5966 117.498 23.7159 117.907 24.6307C118.322 25.5398 118.893 26.2301 119.62 26.7017C120.347 27.1676 121.185 27.4006 122.134 27.4006C123.083 27.4006 123.921 27.1676 124.648 26.7017C125.376 26.2301 125.944 25.5398 126.353 24.6307C126.768 23.7159 126.975 22.5966 126.975 21.2727ZM133.143 30V12.5455H136.305V27.3494H143.993V30H133.143ZM161.654 21.2727C161.654 23.1534 161.302 24.7642 160.597 26.1051C159.898 27.4403 158.944 28.4631 157.734 29.1733C156.529 29.8835 155.163 30.2386 153.634 30.2386C152.106 30.2386 150.737 29.8835 149.526 29.1733C148.322 28.4574 147.367 27.4318 146.663 26.0966C145.964 24.7557 145.614 23.1477 145.614 21.2727C145.614 19.392 145.964 17.7841 146.663 16.4489C147.367 15.108 148.322 14.0824 149.526 13.3722C150.737 12.6619 152.106 12.3068 153.634 12.3068C155.163 12.3068 156.529 12.6619 157.734 13.3722C158.944 14.0824 159.898 15.108 160.597 16.4489C161.302 17.7841 161.654 19.392 161.654 21.2727ZM158.475 21.2727C158.475 19.9489 158.268 18.8324 157.853 17.9233C157.444 17.0085 156.876 16.3182 156.148 15.8523C155.421 15.3807 154.583 15.1449 153.634 15.1449C152.685 15.1449 151.847 15.3807 151.12 15.8523C150.393 16.3182 149.822 17.0085 149.407 17.9233C148.998 18.8324 148.793 19.9489 148.793 21.2727C148.793 22.5966 148.998 23.7159 149.407 24.6307C149.822 25.5398 150.393 26.2301 151.12 26.7017C151.847 27.1676 152.685 27.4006 153.634 27.4006C154.583 27.4006 155.421 27.1676 156.148 26.7017C156.876 26.2301 157.444 25.5398 157.853 24.6307C158.268 23.7159 158.475 22.5966 158.475 21.2727ZM176.337 18.1193C176.195 17.6591 175.999 17.2472 175.749 16.8835C175.504 16.5142 175.209 16.1989 174.862 15.9375C174.521 15.6761 174.129 15.4801 173.686 15.3494C173.243 15.2131 172.76 15.1449 172.237 15.1449C171.3 15.1449 170.464 15.3807 169.732 15.8523C168.999 16.3239 168.422 17.017 168.001 17.9318C167.587 18.8409 167.379 19.9489 167.379 21.2557C167.379 22.5739 167.587 23.6903 168.001 24.6051C168.416 25.5199 168.993 26.2159 169.732 26.6932C170.47 27.1648 171.328 27.4006 172.305 27.4006C173.192 27.4006 173.959 27.2301 174.607 26.8892C175.26 26.5483 175.763 26.0653 176.115 25.4403C176.467 24.8097 176.643 24.071 176.643 23.2244L177.359 23.3352H172.621V20.8636H179.703V22.9602C179.703 24.4545 179.385 25.7472 178.749 26.8381C178.112 27.929 177.237 28.7699 176.124 29.3608C175.01 29.946 173.732 30.2386 172.288 30.2386C170.68 30.2386 169.268 29.8778 168.053 29.1562C166.842 28.429 165.896 27.3977 165.214 26.0625C164.538 24.7216 164.2 23.1307 164.2 21.2898C164.2 19.8807 164.399 18.6222 164.797 17.5142C165.2 16.4062 165.763 15.4659 166.484 14.6932C167.206 13.9148 168.053 13.3239 169.024 12.9205C169.996 12.5114 171.053 12.3068 172.195 12.3068C173.161 12.3068 174.061 12.4489 174.896 12.733C175.732 13.0114 176.473 13.4091 177.121 13.9261C177.774 14.4432 178.311 15.0568 178.732 15.767C179.152 16.4773 179.428 17.2614 179.558 18.1193H176.337ZM182.761 30V12.5455H189.306C190.647 12.5455 191.772 12.7784 192.681 13.2443C193.596 13.7102 194.286 14.3636 194.752 15.2045C195.224 16.0398 195.46 17.0142 195.46 18.1278C195.46 19.2472 195.221 20.2187 194.744 21.0426C194.272 21.8608 193.576 22.4943 192.656 22.9432C191.735 23.3864 190.604 23.608 189.263 23.608H184.602V20.983H188.837C189.621 20.983 190.263 20.875 190.763 20.6591C191.263 20.4375 191.633 20.1165 191.871 19.696C192.116 19.2699 192.238 18.7472 192.238 18.1278C192.238 17.5085 192.116 16.9801 191.871 16.5426C191.627 16.0994 191.255 15.7642 190.755 15.5369C190.255 15.304 189.61 15.1875 188.82 15.1875H185.923V30H182.761ZM191.778 22.0909L196.099 30H192.57L188.326 22.0909H191.778ZM200.612 30H197.237L203.381 12.5455H207.285L213.438 30H210.063L205.401 16.125H205.265L200.612 30ZM200.722 23.1562H209.927V25.696H200.722V23.1562ZM215.737 12.5455H219.607L224.788 25.1932H224.993L230.175 12.5455H234.044V30H231.01V18.0085H230.848L226.024 29.9489H223.757L218.933 17.983H218.771V30H215.737V12.5455Z" fill="white"/>
<defs>
<filter id="filter0_dd_102_30328" x="0.625" y="0.75" width="42.75" height="42.75" filterUnits="userSpaceOnUse" color-interpolation-filters="sRGB">
<feFlood flood-opacity="0" result="BackgroundImageFix"/>
<feColorMatrix in="SourceAlpha" type="matrix" values="0 0 0 0 0 0 0 0 0 0 0 0 0 0 0 0 0 0 127 0" result="hardAlpha"/>
<feOffset dy="1.125"/>
<feGaussianBlur stdDeviation="1.125"/>
<feColorMatrix type="matrix" values="0 0 0 0 0.0627451 0 0 0 0 0.0941176 0 0 0 0 0.156863 0 0 0 0.06 0"/>
<feBlend mode="normal" in2="BackgroundImageFix" result="effect1_dropShadow_102_30328"/>
<feColorMatrix in="SourceAlpha" type="matrix" values="0 0 0 0 0 0 0 0 0 0 0 0 0 0 0 0 0 0 127 0" result="hardAlpha"/>
<feOffset dy="1.125"/>
<feGaussianBlur stdDeviation="1.6875"/>
<feColorMatrix type="matrix" values="0 0 0 0 0.0627451 0 0 0 0 0.0941176 0 0 0 0 0.156863 0 0 0 0.1 0"/>
<feBlend mode="normal" in2="effect1_dropShadow_102_30328" result="effect2_dropShadow_102_30328"/>
<feBlend mode="normal" in="SourceGraphic" in2="effect2_dropShadow_102_30328" result="shape"/>
</filter>
<filter id="filter1_dd_102_30328" x="9.625" y="9.75" width="24.75" height="24.75" filterUnits="userSpaceOnUse" color-interpolation-filters="sRGB">
<feFlood flood-opacity="0" result="BackgroundImageFix"/>
<feColorMatrix in="SourceAlpha" type="matrix" values="0 0 0 0 0 0 0 0 0 0 0 0 0 0 0 0 0 0 127 0" result="hardAlpha"/>
<feOffset dy="1.125"/>
<feGaussianBlur stdDeviation="1.125"/>
<feColorMatrix type="matrix" values="0 0 0 0 0.0627451 0 0 0 0 0.0941176 0 0 0 0 0.156863 0 0 0 0.06 0"/>
<feBlend mode="normal" in2="BackgroundImageFix" result="effect1_dropShadow_102_30328"/>
<feColorMatrix in="SourceAlpha" type="matrix" values="0 0 0 0 0 0 0 0 0 0 0 0 0 0 0 0 0 0 127 0" result="hardAlpha"/>
<feOffset dy="1.125"/>
<feGaussianBlur stdDeviation="1.6875"/>
<feColorMatrix type="matrix" values="0 0 0 0 0.0627451 0 0 0 0 0.0941176 0 0 0 0 0.156863 0 0 0 0.1 0"/>
<feBlend mode="normal" in2="effect1_dropShadow_102_30328" result="effect2_dropShadow_102_30328"/>
<feBlend mode="normal" in="SourceGraphic" in2="effect2_dropShadow_102_30328" result="shape"/>
</filter>
<filter id="filter2_b_102_30328" x="-1.625" y="15.375" width="47.25" height="29.25" filterUnits="userSpaceOnUse" color-interpolation-filters="sRGB">
<feFlood flood-opacity="0" result="BackgroundImageFix"/>
<feGaussianBlur in="BackgroundImageFix" stdDeviation="2.8125"/>
<feComposite in2="SourceAlpha" operator="in" result="effect1_backgroundBlur_102_30328"/>
<feBlend mode="normal" in="SourceGraphic" in2="effect1_backgroundBlur_102_30328" result="shape"/>
</filter>
<linearGradient id="paint0_linear_102_30328" x1="22" y1="3" x2="22" y2="39" gradientUnits="userSpaceOnUse">
<stop stop-color="white"/>
<stop offset="1" stop-color="#D0D5DD"/>
</linearGradient>
<linearGradient id="paint1_linear_102_30328" x1="17.5" y1="30" x2="26.5" y2="12" gradientUnits="userSpaceOnUse">
<stop stop-color="#53389E"/>
<stop offset="1" stop-color="#6941C6"/>
</linearGradient>
<clipPath id="clip0_102_30328">
<rect x="4" y="3" width="36" height="36" rx="9" fill="white"/>
</clipPath>
</defs>
</svg>
